<svg width="40" height="40" viewBox="0 0 40 40" fill="none" xmlns="http://www.w3.org/2000/svg">
<rect x="0.152283" y="0.181152" width="39.177" height="39.177" rx="19.5885" fill="#2DC071"/>
<path fill-rule="evenodd" clip-rule="evenodd" d="M29.0263 13.8393C29.0988 13.9108 29.1563 13.9957 29.1956 14.0892C29.2348 14.1826 29.255 14.2828 29.255 14.384C29.255 14.4852 29.2348 14.5854 29.1956 14.6789C29.1563 14.7724 29.0988 14.8573 29.0263 14.9288L18.1263 25.7C18.054 25.7717 17.9681 25.8285 17.8735 25.8673C17.7789 25.9061 17.6775 25.926 17.5751 25.926C17.4727 25.926 17.3713 25.9061 17.2767 25.8673C17.1821 25.8285 17.0962 25.7717 17.0239 25.7L11.5739 20.3144C11.4277 20.1699 11.3456 19.974 11.3456 19.7697C11.3456 19.5654 11.4277 19.3694 11.5739 19.2249C11.7201 19.0805 11.9184 18.9993 12.1251 18.9993C12.3319 18.9993 12.5302 19.0805 12.6764 19.2249L17.5751 24.0674L27.9239 13.8393C27.9962 13.7677 28.0821 13.7108 28.1767 13.672C28.2713 13.6332 28.3727 13.6133 28.4751 13.6133C28.5775 13.6133 28.6789 13.6332 28.7735 13.672C28.8681 13.7108 28.954 13.7677 29.0263 13.8393Z" fill="white"/>
</svg>
