<svg width="31" height="30" viewBox="0 0 31 30" fill="none" xmlns="http://www.w3.org/2000/svg">
<path d="M0.890015 15C0.890015 23.2843 7.60574 30 15.89 30C24.1743 30 30.89 23.2843 30.89 15C30.89 6.71573 24.1743 0 15.89 0C7.60574 0 0.890015 6.71573 0.890015 15Z" fill="#231E1B"/>
<path fill-rule="evenodd" clip-rule="evenodd" d="M15.8671 7.67999C11.7386 7.67999 8.39001 11.0286 8.39001 15.1571C8.39001 18.4598 10.546 21.258 13.4818 22.2671C13.8487 22.313 13.9863 22.0837 13.9863 21.9002C13.9863 21.7167 13.9863 21.258 13.9863 20.6158C11.9221 21.0745 11.4634 19.6066 11.4634 19.6066C11.1423 18.735 10.6377 18.5057 10.6377 18.5057C9.94965 18.047 10.6836 18.047 10.6836 18.047C11.4175 18.0928 11.8304 18.8268 11.8304 18.8268C12.5185 19.9736 13.5735 19.6525 13.9863 19.469C14.0322 18.9644 14.2616 18.6433 14.4451 18.4598C12.7937 18.2763 11.0506 17.6341 11.0506 14.7442C11.0506 13.9185 11.3258 13.2763 11.8304 12.7259C11.7845 12.5882 11.5093 11.8084 11.9221 10.7993C11.9221 10.7993 12.5643 10.6158 13.9863 11.5791C14.5827 11.3956 15.2249 11.3497 15.8671 11.3497C16.5093 11.3497 17.1515 11.4415 17.7478 11.5791C19.1698 10.6158 19.812 10.7993 19.812 10.7993C20.2249 11.8084 19.9496 12.5882 19.9038 12.7717C20.3625 13.2763 20.6836 13.9644 20.6836 14.7901C20.6836 17.68 18.9405 18.2763 17.2891 18.4598C17.5643 18.6892 17.7937 19.1479 17.7937 19.836C17.7937 20.8451 17.7937 21.6249 17.7937 21.9002C17.7937 22.0837 17.9313 22.313 18.2983 22.2671C21.2799 21.258 23.39 18.4598 23.39 15.1571C23.3441 11.0286 19.9955 7.67999 15.8671 7.67999Z" fill="white"/>
</svg>
