<svg width="31" height="30" viewBox="0 0 31 30" fill="none" xmlns="http://www.w3.org/2000/svg">
<path d="M0.150635 15C0.150635 23.2843 6.86636 30 15.1506 30C23.4349 30 30.1506 23.2843 30.1506 15C30.1506 6.71573 23.4349 0 15.1506 0C6.86636 0 0.150635 6.71573 0.150635 15Z" fill="#2867B2"/>
<path d="M11.0256 22.5H7.83813V12.4688H11.0256V22.5ZM9.43189 11.0625C8.40064 11.0625 7.65063 10.3125 7.65063 9.28125C7.65063 8.25 8.49439 7.5 9.43189 7.5C10.4631 7.5 11.2131 8.25 11.2131 9.28125C11.2131 10.3125 10.4631 11.0625 9.43189 11.0625ZM22.6506 22.5H19.4631V17.0625C19.4631 15.4688 18.8069 15 17.8694 15C16.9319 15 15.9944 15.75 15.9944 17.1562V22.5H12.8069V12.4688H15.8069V13.875C16.0881 13.2188 17.2131 12.1875 18.8069 12.1875C20.5881 12.1875 22.4631 13.2187 22.4631 16.3125V22.5H22.6506Z" fill="white"/>
</svg>
