<svg width="40" height="40" viewBox="0 0 40 40" fill="none" xmlns="http://www.w3.org/2000/svg">
<g opacity="0.3">
<rect width="39.177" height="39.177" rx="19.5885" fill="#737373"/>
<path fill-rule="evenodd" clip-rule="evenodd" d="M28.874 13.6582C28.9465 13.7296 29.004 13.8145 29.0433 13.908C29.0825 14.0015 29.1027 14.1017 29.1027 14.2029C29.1027 14.3041 29.0825 14.4043 29.0433 14.4978C29.004 14.5912 28.9465 14.6761 28.874 14.7476L17.974 25.5189C17.9017 25.5905 17.8158 25.6474 17.7212 25.6861C17.6266 25.7249 17.5252 25.7449 17.4228 25.7449C17.3204 25.7449 17.219 25.7249 17.1244 25.6861C17.0298 25.6474 16.9439 25.5905 16.8715 25.5189L11.4216 20.1332C11.2754 19.9888 11.1932 19.7928 11.1932 19.5885C11.1932 19.3842 11.2754 19.1883 11.4216 19.0438C11.5678 18.8993 11.766 18.8182 11.9728 18.8182C12.1795 18.8182 12.3778 18.8993 12.524 19.0438L17.4228 23.8862L27.7715 13.6582C27.8438 13.5865 27.9298 13.5297 28.0243 13.4909C28.1189 13.4521 28.2203 13.4321 28.3227 13.4321C28.4252 13.4321 28.5266 13.4521 28.6211 13.4909C28.7157 13.5297 28.8017 13.5865 28.874 13.6582Z" fill="white"/>
</g>
</svg>
